<?xml version="1.0" encoding="iso-8859-1"?>
<!-- Generator: Adobe Illustrator 19.0.0, SVG Export Plug-In . SVG Version: 6.00 Build 0)  -->
<svg version="1.1" id="Capa_1" xmlns="http://www.w3.org/2000/svg" xmlns:xlink="http://www.w3.org/1999/xlink" x="0px" y="0px"
	 viewBox="0 0 480 480" style="enable-background:new 0 0 480 480;" xml:space="preserve">
<g>
	
		<linearGradient id="SVGID_1_" gradientUnits="userSpaceOnUse" x1="-58.937" y1="612.625" x2="16.945" y2="612.625" gradientTransform="matrix(8 0 0 -8 455 4941)">
		<stop  offset="0" style="stop-color:#E93E3A"/>
		<stop  offset="0.346" style="stop-color:#ED683C"/>
		<stop  offset="0.717" style="stop-color:#F3903F"/>
		<stop  offset="1" style="stop-color:#FDC70C"/>
	</linearGradient>
	<path style="fill:url(#SVGID_1_);" d="M32,32h16v16H32V32z"/>
	
		<linearGradient id="SVGID_2_" gradientUnits="userSpaceOnUse" x1="-58.937" y1="612.625" x2="16.945" y2="612.625" gradientTransform="matrix(8 0 0 -8 455 4941)">
		<stop  offset="0" style="stop-color:#E93E3A"/>
		<stop  offset="0.346" style="stop-color:#ED683C"/>
		<stop  offset="0.717" style="stop-color:#F3903F"/>
		<stop  offset="1" style="stop-color:#FDC70C"/>
	</linearGradient>
	<path style="fill:url(#SVGID_2_);" d="M64,32h16v16H64V32z"/>
	
		<linearGradient id="SVGID_3_" gradientUnits="userSpaceOnUse" x1="-58.937" y1="612.625" x2="16.945" y2="612.625" gradientTransform="matrix(8 0 0 -8 455 4941)">
		<stop  offset="0" style="stop-color:#E93E3A"/>
		<stop  offset="0.346" style="stop-color:#ED683C"/>
		<stop  offset="0.717" style="stop-color:#F3903F"/>
		<stop  offset="1" style="stop-color:#FDC70C"/>
	</linearGradient>
	<path style="fill:url(#SVGID_3_);" d="M96,32h16v16H96V32z"/>
</g>
<g>
	
		<linearGradient id="SVGID_4_" gradientUnits="userSpaceOnUse" x1="-58.937" y1="587.625" x2="16.945" y2="587.625" gradientTransform="matrix(8 0 0 -8 455 4941)">
		<stop  offset="0" style="stop-color:#E93E3A"/>
		<stop  offset="0.346" style="stop-color:#ED683C"/>
		<stop  offset="0.717" style="stop-color:#F3903F"/>
		<stop  offset="1" style="stop-color:#FDC70C"/>
	</linearGradient>
	<path style="fill:url(#SVGID_4_);" d="M472,0H8C3.582,0,0,3.582,0,8v464c0,4.418,3.582,8,8,8h464c4.418,0,8-3.582,8-8V8
		C480,3.582,476.418,0,472,0z M16,16h448v40H16V16z M320,352c22.4,0.006,43.946,8.595,60.208,24H281.6
		c6.911-6.397,11.664-14.784,13.6-24H320z M240,376c-16.689,1.001-32.202-8.61-38.736-24h77.472
		C272.202,367.39,256.689,377.001,240,376L240,376z M184.84,352c1.925,9.211,6.664,17.597,13.56,24H99.792
		c16.262-15.405,37.808-23.994,60.208-24H184.84z M86.336,392h307.328c6.344,9.714,10.695,20.591,12.8,32H360v-16h-16v16H136v-16
		h-16v16H73.528C75.636,412.59,79.989,401.713,86.336,392z M344,440v24H136v-24H344z M72,440h48v24H72V440z M360,464v-24h48v24H360z
		 M424,464v-24c-0.066-57.41-46.59-103.934-104-104H160c-57.41,0.066-103.934,46.59-104,104v24H16V72h448v392H424z"/>
	
		<linearGradient id="SVGID_5_" gradientUnits="userSpaceOnUse" x1="-58.937" y1="590.625" x2="16.945" y2="590.625" gradientTransform="matrix(8 0 0 -8 455 4941)">
		<stop  offset="0" style="stop-color:#E93E3A"/>
		<stop  offset="0.346" style="stop-color:#ED683C"/>
		<stop  offset="0.717" style="stop-color:#F3903F"/>
		<stop  offset="1" style="stop-color:#FDC70C"/>
	</linearGradient>
	<path style="fill:url(#SVGID_5_);" d="M208,192c-13.255,0-24,10.745-24,24s10.745,24,24,24s24-10.745,24-24l0,0
		C232,202.745,221.255,192,208,192z M208,224c-4.418,0-8-3.582-8-8s3.582-8,8-8s8,3.582,8,8S212.418,224,208,224z"/>
	
		<linearGradient id="SVGID_6_" gradientUnits="userSpaceOnUse" x1="-58.937" y1="590.625" x2="16.945" y2="590.625" gradientTransform="matrix(8 0 0 -8 455 4941)">
		<stop  offset="0" style="stop-color:#E93E3A"/>
		<stop  offset="0.346" style="stop-color:#ED683C"/>
		<stop  offset="0.717" style="stop-color:#F3903F"/>
		<stop  offset="1" style="stop-color:#FDC70C"/>
	</linearGradient>
	<path style="fill:url(#SVGID_6_);" d="M272,192c-13.255,0-24,10.745-24,24s10.745,24,24,24s24-10.745,24-24l0,0
		C296,202.745,285.255,192,272,192z M272,224c-4.418,0-8-3.582-8-8s3.582-8,8-8s8,3.582,8,8S276.418,224,272,224z"/>
	
		<linearGradient id="SVGID_7_" gradientUnits="userSpaceOnUse" x1="-58.937" y1="590.6252" x2="16.945" y2="590.6252" gradientTransform="matrix(8 0 0 -8 455 4941)">
		<stop  offset="0" style="stop-color:#E93E3A"/>
		<stop  offset="0.346" style="stop-color:#ED683C"/>
		<stop  offset="0.717" style="stop-color:#F3903F"/>
		<stop  offset="1" style="stop-color:#FDC70C"/>
	</linearGradient>
	<path style="fill:url(#SVGID_7_);" d="M307.392,139.528c-37.854-37.18-98.681-36.633-135.861,1.221
		C153.903,158.697,144.018,182.843,144,208v55.96c-0.022,13.255,10.705,24.018,23.96,24.04c0.013,0,0.027,0,0.04,0h16v24
		c0,4.418,3.582,8,8,8h96c4.418,0,8-3.582,8-8v-24h16c13.244-0.026,23.974-10.756,24-24v-56
		C336.118,182.246,325.797,157.543,307.392,139.528z M312,272h-24c-4.418,0-8,3.582-8,8v24h-16v-32h-16v32h-16v-32h-16v32h-16v-24
		c0-4.418-3.582-8-8-8h-24c-4.418,0-8-3.582-8-8v-56c0.1-44.284,36.08-80.103,80.365-80.003
		c28.806,0.065,55.364,15.577,69.571,40.635c6.782,12,10.255,25.586,10.064,39.368v56C320,268.418,316.418,272,312,272z"/>
</g>
<g>
</g>
<g>
</g>
<g>
</g>
<g>
</g>
<g>
</g>
<g>
</g>
<g>
</g>
<g>
</g>
<g>
</g>
<g>
</g>
<g>
</g>
<g>
</g>
<g>
</g>
<g>
</g>
<g>
</g>
</svg>
