<svg id="Layer_1" height="512" viewBox="0 0 128 128" width="512" xmlns="http://www.w3.org/2000/svg" xmlns:xlink="http://www.w3.org/1999/xlink" data-name="Layer 1"><linearGradient id="linear-gradient" gradientUnits="userSpaceOnUse" x1="118.315" x2="9.685" y1="118.315" y2="9.685"><stop offset="0" stop-color="#30ade0"/><stop offset="1" stop-color="#85c646"/></linearGradient><path d="m82.958 25.44a3.024 3.024 0 1 1 3.024-3.023 3.024 3.024 0 0 1 -3.024 3.023zm14.857-3.023a3.024 3.024 0 1 0 -3.023 3.023 3.024 3.024 0 0 0 3.023-3.023zm11.833 0a3.023 3.023 0 1 0 -3.023 3.023 3.023 3.023 0 0 0 3.023-3.023zm11.852 42.166a1.75 1.75 0 0 0 -1.75 1.75v7.5a1.75 1.75 0 0 0 3.5 0v-7.5a1.75 1.75 0 0 0 -1.75-1.75zm0-50.987h-66.825a1.75 1.75 0 0 0 0 3.5h65.075v10.641h-111.5v-10.637h34.917a1.75 1.75 0 0 0 0-3.5h-36.667a1.75 1.75 0 0 0 -1.75 1.75v97.308a1.75 1.75 0 0 0 1.75 1.742h115a1.75 1.75 0 0 0 1.75-1.75v-28.983a1.75 1.75 0 0 0 -3.5 0v27.233h-111.5v-79.663h111.5v24.763a1.75 1.75 0 0 0 3.5 0v-40.654a1.75 1.75 0 0 0 -1.75-1.746zm-77.169 56.67a1.75 1.75 0 0 0 -3.423.734c2.951 13.8 10.264 23.226 22.356 28.83a1.753 1.753 0 0 0 1.472 0c21.152-9.8 24-29.549 24-47.569a1.748 1.748 0 0 0 -1.708-1.749c-5.793-.138-18.823-4.824-21.784-7.836a1.8 1.8 0 0 0 -2.5 0c-2.961 3.012-15.991 7.7-21.784 7.836a1.748 1.748 0 0 0 -1.708 1.749c0 3.2.09 6.034.276 8.657a1.75 1.75 0 1 0 3.491-.248c-.148-2.091-.234-4.325-.259-6.79 6.164-.734 16.657-4.34 21.24-7.695 4.583 3.355 15.075 6.961 21.232 7.693-.172 16.246-3.139 33.622-21.232 42.422-10.587-5.147-17.025-13.672-19.669-26.034zm19.669 8.234a1.744 1.744 0 0 0 1.251-.526l11.1-11.355a1.75 1.75 0 0 0 -2.5-2.447l-9.877 10.1-5.274-5.15a1.75 1.75 0 1 0 -2.445 2.5l6.522 6.378a1.744 1.744 0 0 0 1.223.5z" fill="url(#linear-gradient)"/></svg>