<svg id="Layer_1" height="512" viewBox="0 0 128 128" width="512" xmlns="http://www.w3.org/2000/svg" xmlns:xlink="http://www.w3.org/1999/xlink" data-name="Layer 1"><linearGradient id="linear-gradient" gradientUnits="userSpaceOnUse" x1="118.315" x2="9.685" y1="118.315" y2="9.685"><stop offset="0" stop-color="#30ade0"/><stop offset="1" stop-color="#85c646"/></linearGradient><path d="m82.958 25.44a3.024 3.024 0 1 1 3.024-3.023 3.024 3.024 0 0 1 -3.024 3.023zm14.857-3.023a3.024 3.024 0 1 0 -3.023 3.023 3.024 3.024 0 0 0 3.023-3.023zm11.833 0a3.023 3.023 0 1 0 -3.023 3.023 3.023 3.023 0 0 0 3.023-3.023zm11.852 80.183a1.75 1.75 0 0 0 -1.75 1.75v6.55h-111.5v-32.9a1.75 1.75 0 0 0 -3.5 0v34.654a1.75 1.75 0 0 0 1.75 1.746h115a1.75 1.75 0 0 0 1.75-1.75v-8.3a1.75 1.75 0 0 0 -1.75-1.75zm1.75-87.257v77.9a1.75 1.75 0 0 1 -3.5 0v-62.006h-111.5v34.174a1.75 1.75 0 0 1 -3.5 0v-50.065a1.75 1.75 0 0 1 1.75-1.746h115a1.75 1.75 0 0 1 1.75 1.746zm-3.5 12.391v-10.634h-111.5v10.637zm-73.971 36.89-5.036 3.658 1.924 5.918a1.751 1.751 0 0 1 -2.694 1.957l-5.036-3.657-5.037 3.66a1.751 1.751 0 0 1 -2.692-1.96l1.924-5.921-5.032-3.655a1.75 1.75 0 0 1 1.029-3.166h6.221l1.923-5.92a1.75 1.75 0 0 1 3.329 0l1.923 5.92h6.225a1.75 1.75 0 0 1 1.029 3.166zm-8.122 1.576 1.707-1.24h-2.11a1.751 1.751 0 0 1 -1.665-1.209l-.652-2.007-.651 2.007a1.751 1.751 0 0 1 -1.665 1.209h-2.11l1.707 1.24a1.751 1.751 0 0 1 .636 1.957l-.654 2.005 1.707-1.24a1.751 1.751 0 0 1 2.057 0l1.707 1.24-.652-2.007a1.751 1.751 0 0 1 .638-1.955zm37.184-1.574-5.036 3.658 1.924 5.916a1.75 1.75 0 0 1 -2.693 1.957l-5.036-3.657-5.036 3.66a1.75 1.75 0 0 1 -2.693-1.96l1.929-5.918-5.036-3.658a1.75 1.75 0 0 1 1.028-3.166h6.225l1.923-5.92a1.751 1.751 0 0 1 3.33 0l1.923 5.92h6.224a1.75 1.75 0 0 1 1.029 3.166zm-8.122 1.574 1.708-1.24h-2.111a1.749 1.749 0 0 1 -1.664-1.209l-.652-2.009-.652 2.007a1.749 1.749 0 0 1 -1.664 1.209h-2.111l1.708 1.24a1.754 1.754 0 0 1 .636 1.957l-.653 2.007 1.707-1.24a1.752 1.752 0 0 1 2.058 0l1.707 1.24-.653-2.007a1.754 1.754 0 0 1 .636-1.955zm37.181-1.576-5.036 3.658 1.924 5.921a1.751 1.751 0 0 1 -2.688 1.957l-5.038-3.66-5.035 3.66a1.751 1.751 0 0 1 -2.694-1.96l1.924-5.921-5.036-3.658a1.75 1.75 0 0 1 1.029-3.166h6.225l1.923-5.92a1.75 1.75 0 0 1 3.329 0l1.923 5.92h6.225a1.75 1.75 0 0 1 1.029 3.166zm-8.118 1.576 1.707-1.24h-2.11a1.751 1.751 0 0 1 -1.665-1.209l-.652-2.007-.651 2.007a1.751 1.751 0 0 1 -1.665 1.209h-2.11l1.707 1.24a1.751 1.751 0 0 1 .636 1.957l-.652 2.007 1.707-1.24a1.751 1.751 0 0 1 2.057 0l1.707 1.24-.652-2.007a1.751 1.751 0 0 1 .636-1.957zm-23.907-18.014h-53.205a1.75 1.75 0 0 0 -1.75 1.75v31.479a1.75 1.75 0 0 0 1.75 1.75h35.652l8.325 10.149a1.748 1.748 0 0 0 2.706 0l8.325-10.149h35.972a1.75 1.75 0 0 0 1.75-1.75v-31.479a1.75 1.75 0 0 0 -1.75-1.75h-15.525a1.75 1.75 0 0 0 0 3.5h13.775v27.979h-35.05a1.749 1.749 0 0 0 -1.353.641l-7.497 9.139-7.5-9.139a1.749 1.749 0 0 0 -1.353-.641h-34.727v-27.979h51.455a1.75 1.75 0 0 0 0-3.5zm14.107 0h-5.107a1.75 1.75 0 0 0 0 3.5h5.107a1.75 1.75 0 0 0 0-3.5z" fill="url(#linear-gradient)"/></svg>