<svg id="Layer_1" height="512" viewBox="0 0 128 128" width="512" xmlns="http://www.w3.org/2000/svg" xmlns:xlink="http://www.w3.org/1999/xlink" data-name="Layer 1"><linearGradient id="linear-gradient" gradientUnits="userSpaceOnUse" x1="118.315" x2="9.685" y1="109.47" y2=".84"><stop offset="0" stop-color="#30ade0"/><stop offset="1" stop-color="#85c646"/></linearGradient><path d="m82.958 16.594a3.024 3.024 0 1 1 3.024-3.023 3.024 3.024 0 0 1 -3.024 3.023zm14.857-3.023a3.024 3.024 0 1 0 -3.023 3.023 3.024 3.024 0 0 0 3.023-3.023zm11.833 0a3.023 3.023 0 1 0 -3.023 3.023 3.023 3.023 0 0 0 3.023-3.023zm11.852 48.321a1.75 1.75 0 0 0 -1.75 1.75v9.7a1.75 1.75 0 0 0 3.5 0v-9.7a1.75 1.75 0 0 0 -1.75-1.75zm1.75-55.392v47a1.75 1.75 0 0 1 -3.5 0v-31.109h-111.5v79.669h19.95c-.082-.142-.173-.276-.254-.419a1.755 1.755 0 0 1 0-1.721 44.189 44.189 0 0 1 7.532-9.837 1.75 1.75 0 1 1 2.451 2.5 40.62 40.62 0 0 0 -6.435 8.2c.414.7.849 1.372 1.3 2.035.011.016.02.032.03.048a37.482 37.482 0 0 0 31.176 16.944c12.528 0 23.961-6.28 31.191-16.96l.019-.029c.449-.664.885-1.342 1.3-2.041-7.11-11.936-19.195-19.03-32.51-19.03a36.233 36.233 0 0 0 -17.452 4.442 1.75 1.75 0 0 1 -1.669-3.076 39.683 39.683 0 0 1 19.121-4.866c14.692 0 28.509 8.3 36.058 21.67a1.753 1.753 0 0 1 0 1.721c-.081.143-.172.277-.255.419h19.95v-18.81a1.75 1.75 0 0 1 3.5 0v20.56a1.751 1.751 0 0 1 -1.75 1.75h-23.967a41.49 41.49 0 0 1 -33.536 17.75 41.469 41.469 0 0 1 -33.535-17.75h-23.965a1.751 1.751 0 0 1 -1.75-1.75v-97.31a1.75 1.75 0 0 1 1.75-1.75h115a1.75 1.75 0 0 1 1.75 1.75zm-3.5 12.391v-10.641h-111.5v10.641zm-22.12 28.687v-12a1.75 1.75 0 0 0 -1.75-1.75h-11.13a1.75 1.75 0 0 0 0 3.5h9.38v8.5h-60.26v-8.5h35.38a1.75 1.75 0 0 0 0-3.5h-37.13a1.75 1.75 0 0 0 -1.75 1.75v12a1.75 1.75 0 0 0 1.75 1.75h63.76a1.75 1.75 0 0 0 1.75-1.75zm-44.1 58.586a11.792 11.792 0 0 1 5.085-15.864 11.77 11.77 0 0 1 15.861 5.1 11.793 11.793 0 0 1 -5.09 15.861 11.654 11.654 0 0 1 -5.371 1.307 11.75 11.75 0 0 1 -10.49-6.404zm3.112-1.6a8.284 8.284 0 1 0 3.578-11.148 8.265 8.265 0 0 0 -3.583 11.148zm5.613-45.5v9.875a1.75 1.75 0 0 0 3.5 0v-9.876a1.75 1.75 0 0 0 -3.5 0zm16.827 2.78-3.949 9.051a1.749 1.749 0 0 0 .905 2.3 1.73 1.73 0 0 0 .7.147 1.751 1.751 0 0 0 1.605-1.05l3.949-9.051a1.75 1.75 0 1 0 -3.208-1.4zm14.312 9.276-7.244 6.717a1.75 1.75 0 0 0 2.381 2.563l7.239-6.717a1.751 1.751 0 0 0 -2.381-2.567zm-46.77-10.18a1.749 1.749 0 0 0 -.9 2.3l3.949 9.051a1.751 1.751 0 0 0 1.6 1.05 1.73 1.73 0 0 0 .7-.147 1.749 1.749 0 0 0 .905-2.3l-3.949-9.051a1.751 1.751 0 0 0 -2.31-.904zm-14.486 10.272a1.751 1.751 0 0 0 .092 2.474l7.239 6.714a1.75 1.75 0 0 0 2.381-2.566l-7.239-6.718a1.751 1.751 0 0 0 -2.473.096z" fill="url(#linear-gradient)"/></svg>