<svg height="480pt" viewBox="0 0 480 480" width="480pt" xmlns="http://www.w3.org/2000/svg" xmlns:xlink="http://www.w3.org/1999/xlink"><linearGradient id="a"><stop offset="0" stop-color="#fff200"/><stop offset="1" stop-color="#cd118c"/></linearGradient><linearGradient id="b" gradientUnits="userSpaceOnUse" x1="22" x2="470" xlink:href="#a" y1="454.112" y2="14.112"/><linearGradient id="c" gradientUnits="userSpaceOnUse" x1="-33.992" x2="414.008" xlink:href="#a" y1="397.096" y2="-42.904"/><g fill="url(#b)"><path d="m240 0c-132.546875 0-240 107.453125-240 240s107.453125 240 240 240 240-107.453125 240-240c-.148438-132.484375-107.515625-239.851562-240-240zm0 464c-123.710938 0-224-100.289062-224-224s100.289062-224 224-224 224 100.289062 224 224c-.140625 123.652344-100.347656 223.859375-224 224zm0 0"/><path d="m240 24c-119.292969 0-216 96.707031-216 216s96.707031 216 216 216 216-96.707031 216-216c-.132812-119.238281-96.761719-215.867188-216-216zm0 416c-110.457031 0-200-89.542969-200-200s89.542969-200 200-200 200 89.542969 200 200c-.125 110.40625-89.59375 199.875-200 200zm0 0"/><path d="m291.199219 122.777344-6.398438 14.671875c48.769531 21.222656 75.953125 73.753906 65.113281 125.824219-10.835937 52.074218-56.726562 89.394531-109.914062 89.394531s-99.078125-37.320313-109.914062-89.394531c-10.839844-52.070313 16.34375-104.601563 65.113281-125.824219l-6.398438-14.671875c-55.703125 24.253906-86.75 84.261718-74.363281 143.742187 12.386719 59.476563 64.808594 102.105469 125.5625 102.105469s113.175781-42.628906 125.5625-102.105469c12.386719-59.480469-18.660156-119.488281-74.363281-143.742187zm0 0"/></g><path d="m232 64h16v128h-16zm0 0" fill="url(#c)"/></svg>