<svg id="Layer_1" height="512" viewBox="0 0 128 128" width="512" xmlns="http://www.w3.org/2000/svg" xmlns:xlink="http://www.w3.org/1999/xlink" data-name="Layer 1"><linearGradient id="linear-gradient" gradientUnits="userSpaceOnUse" x1="118.314" x2="9.686" y1="118.314" y2="9.686"><stop offset="0" stop-color="#30ade0"/><stop offset="1" stop-color="#85c646"/></linearGradient><path d="m82.958 25.44a3.024 3.024 0 1 1 3.024-3.023 3.024 3.024 0 0 1 -3.024 3.023zm14.857-3.023a3.024 3.024 0 1 0 -3.023 3.023 3.024 3.024 0 0 0 3.023-3.023zm11.833 0a3.023 3.023 0 1 0 -3.023 3.023 3.023 3.023 0 0 0 3.023-3.023zm11.852 56.377a1.751 1.751 0 0 0 -1.75 1.75v7.725a1.75 1.75 0 0 0 3.5 0v-7.725a1.751 1.751 0 0 0 -1.75-1.75zm0 16.706a1.751 1.751 0 0 0 -1.75 1.75v13.65h-111.5v-43.067a1.75 1.75 0 0 0 -3.5 0v44.821a1.751 1.751 0 0 0 1.75 1.746h115a1.751 1.751 0 0 0 1.75-1.75v-15.4a1.751 1.751 0 0 0 -1.75-1.75zm0-81.9h-115a1.751 1.751 0 0 0 -1.75 1.75v40.15a1.75 1.75 0 0 0 3.5 0v-24.263h49.75a1.75 1.75 0 0 0 0-3.5h-49.75v-10.637h111.5v10.637h-50.75a1.75 1.75 0 0 0 0 3.5h50.75v39.833a1.75 1.75 0 0 0 3.5 0v-55.724a1.751 1.751 0 0 0 -1.75-1.746zm-50.919 78.169a1.75 1.75 0 0 1 -1.676-2.254l3.144-10.446c.006-.019.018-.035.024-.054a1.812 1.812 0 0 1 .134-.3c.015-.025.026-.053.041-.078a1.753 1.753 0 0 1 .239-.3l25.034-25.037a6.916 6.916 0 1 1 9.781 9.781l-25.033 25.036a1.8 1.8 0 0 1 -.3.239c-.026.016-.054.028-.081.043a1.727 1.727 0 0 1 -.3.132c-.019.007-.035.019-.055.025l-10.449 3.144a1.741 1.741 0 0 1 -.503.069zm7.142-5.723-3.166-3.166-1.363 4.527zm-1.523-6.473 4.831 4.832 23.8-23.8a3.417 3.417 0 1 0 -4.831-4.828zm10.773-4.192a1.744 1.744 0 0 0 1.237-.512l12.99-12.994a1.75 1.75 0 0 0 -2.471-2.475l-12.993 12.994a1.75 1.75 0 0 0 1.237 2.987zm-34.321-6.061h-32.228a1.75 1.75 0 0 0 0 3.5h32.228a1.75 1.75 0 0 0 0-3.5zm-32.231 12.974h32.228a1.75 1.75 0 0 0 0-3.5h-32.228a1.75 1.75 0 0 0 0 3.5zm0 9.475h32.231a1.75 1.75 0 0 0 0-3.5h-32.231a1.75 1.75 0 1 0 0 3.5zm0-37.9h32.231a1.75 1.75 0 0 0 0-3.5h-32.228a1.75 1.75 0 1 0 0 3.5zm0 9.473h32.228a1.75 1.75 0 0 0 0-3.5h-32.228a1.75 1.75 0 1 0 0 3.5z" fill="url(#linear-gradient)"/></svg>