<svg height="488pt" viewBox="-44 0 488 488" width="488pt" xmlns="http://www.w3.org/2000/svg" xmlns:xlink="http://www.w3.org/1999/xlink"><linearGradient id="a"><stop offset="0" stop-color="#fff200"/><stop offset="1" stop-color="#cd118c"/></linearGradient><linearGradient id="b" gradientUnits="userSpaceOnUse" x1="-48.003745" x2="448.252255" xlink:href="#a" y1="324.449319" y2="324.449319"/><linearGradient id="c" gradientUnits="userSpaceOnUse" x1="-47.999626" x2="448.256374" xlink:href="#a" y1="324.447613" y2="324.447613"/><linearGradient id="d" gradientUnits="userSpaceOnUse" x1="-48" x2="448.256" xlink:href="#a" y1="24" y2="24"/><linearGradient id="e" gradientUnits="userSpaceOnUse" x1="-48.005451" x2="448.250549" xlink:href="#a" y1="75.5492" y2="75.5492"/><linearGradient id="f" gradientUnits="userSpaceOnUse" x1="-48" x2="448.256" xlink:href="#a" y1="200" y2="200"/><linearGradient id="g" gradientUnits="userSpaceOnUse" x1="-48.001332" x2="448.254668" xlink:href="#a" y1="75.547493" y2="75.547493"/><linearGradient id="h" gradientUnits="userSpaceOnUse" x1="-48" x2="448.256" xlink:href="#a" y1="464" y2="464"/><linearGradient id="i" gradientUnits="userSpaceOnUse" x1="-48" x2="448.256" xlink:href="#a" y1="248" y2="248"/><path d="m52.925781 335.765625 33.941407-33.941406 11.3125 11.316406-33.941407 33.941406zm0 0" fill="url(#b)"/><path d="m301.824219 313.132812 11.3125-11.3125 33.941406 33.941407-11.3125 11.3125zm0 0" fill="url(#c)"/><path d="m192 0h16v48h-16zm0 0" fill="url(#d)"/><path d="m52.921875 64.234375 11.316406-11.3125 33.941407 33.941406-11.316407 11.3125zm0 0" fill="url(#e)"/><path d="m0 192h48v16h-48zm0 0" fill="url(#f)"/><path d="m352 192h48v16h-48zm0 0" fill="url(#f)"/><path d="m301.824219 86.867188 33.941406-33.941407 11.3125 11.3125-33.941406 33.941407zm0 0" fill="url(#g)"/><path d="m135.433594 200c0 35.660156 28.90625 64.566406 64.566406 64.566406s64.566406-28.90625 64.566406-64.566406-28.90625-64.566406-64.566406-64.566406c-35.644531.035156-64.53125 28.921875-64.566406 64.566406zm64.566406-48.566406c25.253906 0 46.289062 19.363281 48.375 44.527344 2.089844 25.167968-15.46875 47.734374-40.375 51.894531v-35.574219l20.441406-13.601562-8.882812-13.3125-19.558594 13.03125-19.558594-13.039063-8.882812 13.3125 20.441406 13.609375v35.574219c-24.90625-4.160157-42.464844-26.726563-40.375-51.894531 2.085938-25.164063 23.121094-44.527344 48.375-44.527344zm0 0" fill="url(#f)"/><path d="m216 440v16h11.550781c-7.207031 12.546875-21.957031 18.667969-35.929687 14.914062-13.976563-3.753906-23.671875-16.445312-23.621094-30.914062h-16c0 26.507812 21.492188 48 48 48s48-21.492188 48-48zm0 0" fill="url(#h)"/><path d="m336 200c-.082031-75.074219-60.925781-135.917969-136-136v16c66.273438 0 120 53.726562 120 120s-53.726562 120-120 120h-16v-27.433594l-6.121094-1.476562c-9.398437-2.28125-18.386718-6.007813-26.640625-11.050782l-5.375-3.277343-19.398437 19.40625-22.632813-22.632813 19.40625-19.40625-3.238281-5.328125c-5.039062-8.253906-8.769531-17.242187-11.046875-26.640625l-1.519531-6.160156h-27.433594v-32h27.433594l1.476562-6.121094c2.292969-9.398437 6.035156-18.386718 11.089844-26.640625l3.28125-5.367187-19.410156-19.40625 22.632812-22.632813 19.40625 19.40625 5.371094-3.277343c8.253906-5.042969 17.238281-8.769532 26.640625-11.050782l6.078125-1.476562v-27.433594h8v-16h-24v31.03125c-6.78125 2.078125-13.34375 4.8125-19.59375 8.167969l-21.941406-21.953125-45.257813 45.257812 21.992188 21.902344c-3.355469 6.25-6.089844 12.8125-8.167969 19.59375h-31.03125v64h31.03125c2.078125 6.78125 4.8125 13.34375 8.167969 19.59375l-21.953125 21.941406 45.257812 45.257813 21.910156-21.992188c6.246094 3.355469 12.808594 6.089844 19.585938 8.167969v15.03125h-40v48h24v16h-16v48h128v-48h-16v-16h24v-48h-8.136719c44.355469-23.617188 72.089844-69.75 72.136719-120zm-88 216h-96v-16h96zm-16-32h-64v-16h64zm24-48v16h-112v-16zm0 0" fill="url(#i)"/></svg>