<svg id="Layer_1" height="512" viewBox="0 0 128 128" width="512" xmlns="http://www.w3.org/2000/svg" xmlns:xlink="http://www.w3.org/1999/xlink" data-name="Layer 1"><linearGradient id="linear-gradient" gradientUnits="userSpaceOnUse" x1="100.814" x2="27.186" y1="96.065" y2="22.437"><stop offset="0" stop-color="#30ade0"/><stop offset="1" stop-color="#85c646"/></linearGradient><path d="m96.42 54.862a32.117 32.117 0 0 1 -6.6 19.607 40.122 40.122 0 0 0 -6.487 12.854 1.75 1.75 0 1 1 -3.353-1 43.592 43.592 0 0 1 7.053-13.973 28.643 28.643 0 0 0 5.887-17.488 29.027 29.027 0 0 0 -9.192-21.146 28.852 28.852 0 0 0 -36.879-2.109 1.75 1.75 0 1 1 -2.084-2.807 32.348 32.348 0 0 1 41.351 2.362 32.539 32.539 0 0 1 10.304 23.7zm-16.226 38.454a1.753 1.753 0 0 0 -1.923 1.557c-.119 1.114-.2 2.243-.239 3.372h-12.282v-22.659l9.233-7.035a1.75 1.75 0 1 0 -2.121-2.783l-7.112 5.419v-9.693a1.75 1.75 0 0 0 -3.5 0v9.693l-7.112-5.419a1.75 1.75 0 1 0 -2.121 2.783l9.233 7.035v22.659h-12.284a46.758 46.758 0 0 0 -9.152-26.1 28.978 28.978 0 0 1 -5.654-19.47 28.382 28.382 0 0 1 1.729-7.884 1.75 1.75 0 0 0 -3.278-1.227 31.9 31.9 0 0 0 -1.941 8.855 32.481 32.481 0 0 0 6.34 21.822 43.275 43.275 0 0 1 8.49 25.759 1.749 1.749 0 0 0 1.75 1.75h31.5a1.749 1.749 0 0 0 1.75-1.75 45.42 45.42 0 0 1 .25-4.755 1.75 1.75 0 0 0 -1.556-1.929zm-42.65-54.038a1.75 1.75 0 0 0 2.429-.475 29.474 29.474 0 0 1 1.979-2.615 1.749 1.749 0 0 0 -2.668-2.263 32.859 32.859 0 0 0 -2.216 2.925 1.75 1.75 0 0 0 .476 2.428zm43.961 65.5v9.872a1.749 1.749 0 0 1 -1.75 1.75h-6.177a10.092 10.092 0 0 1 -9.564 6.853h-.125a10.154 10.154 0 0 1 -9.468-6.852h-6.176a1.749 1.749 0 0 1 -1.75-1.75v-9.872a1.75 1.75 0 0 1 1.75-1.75h31.51a1.75 1.75 0 0 1 1.75 1.747zm-11.747 11.622h-11.515a6.653 6.653 0 0 0 5.689 3.352h.081a6.6 6.6 0 0 0 5.745-3.352zm8.247-9.872h-28.005v6.372h28.01zm-14.005-88.361a1.749 1.749 0 0 0 1.75-1.75v-9.917a1.75 1.75 0 0 0 -3.5 0v9.917a1.749 1.749 0 0 0 1.75 1.75zm18.47 4.709a1.75 1.75 0 0 0 2.446-.376l5.864-8a1.75 1.75 0 0 0 -2.822-2.07l-5.864 8a1.749 1.749 0 0 0 .376 2.446zm25.009 6.632a1.748 1.748 0 0 0 -2.395-.625l-8.557 5.017a1.75 1.75 0 0 0 1.77 3.019l8.557-5.013a1.75 1.75 0 0 0 .625-2.398zm6.732 22.609a1.751 1.751 0 0 0 -1.963-1.508l-9.832 1.291a1.75 1.75 0 0 0 .226 3.486 1.784 1.784 0 0 0 .229-.015l9.829-1.291a1.751 1.751 0 0 0 1.511-1.963zm-71.127-29.617a1.75 1.75 0 0 0 2.822-2.07l-5.864-8a1.75 1.75 0 0 0 -2.822 2.07zm-10.984 13.79a1.75 1.75 0 0 0 -.625-2.394l-8.557-5.013a1.75 1.75 0 1 0 -1.77 3.019l8.552 5.013a1.751 1.751 0 0 0 2.4-.625zm-6.516 15.61-9.832-1.287a1.75 1.75 0 0 0 -.452 3.467l9.832 1.287a1.784 1.784 0 0 0 .229.015 1.75 1.75 0 0 0 .226-3.486zm60.336 2.962a1.75 1.75 0 1 0 3.5 0 25.33 25.33 0 0 0 -15.943-23.588 1.75 1.75 0 1 0 -1.309 3.247 21.844 21.844 0 0 1 13.752 20.341z" fill="url(#linear-gradient)"/></svg>