<svg id="Layer_1" height="512" viewBox="0 0 128 128" width="512" xmlns="http://www.w3.org/2000/svg" xmlns:xlink="http://www.w3.org/1999/xlink" data-name="Layer 1"><linearGradient id="linear-gradient" gradientUnits="userSpaceOnUse" x1="118.315" x2="9.685" y1="118.315" y2="9.685"><stop offset="0" stop-color="#30ade0"/><stop offset="1" stop-color="#85c646"/></linearGradient><path d="m82.958 25.44a3.024 3.024 0 1 1 3.024-3.023 3.024 3.024 0 0 1 -3.024 3.023zm14.857-3.023a3.024 3.024 0 1 0 -3.023 3.023 3.024 3.024 0 0 0 3.023-3.023zm11.833 0a3.023 3.023 0 1 0 -3.023 3.023 3.023 3.023 0 0 0 3.023-3.023zm11.852 25.956a1.749 1.749 0 0 0 -1.75 1.75v60.777h-111.5v-27.5a1.75 1.75 0 0 0 -3.5 0v29.251a1.749 1.749 0 0 0 1.75 1.749h115a1.749 1.749 0 0 0 1.75-1.75v-62.527a1.749 1.749 0 0 0 -1.75-1.75zm-75.42-20.636h-9.849a1.75 1.75 0 0 0 0 3.5h9.849a1.75 1.75 0 0 0 0-3.5zm75.42-14.137h-115a1.749 1.749 0 0 0 -1.75 1.75v55.65a1.75 1.75 0 0 0 3.5 0v-39.763h17.875a1.75 1.75 0 0 0 0-3.5h-17.875v-10.637h111.5v10.637h-63.25a1.75 1.75 0 0 0 0 3.5h63.25v6.1a1.75 1.75 0 0 0 3.5 0v-21.991a1.749 1.749 0 0 0 -1.75-1.746zm-29.73 52.444a1.75 1.75 0 0 0 1.415-2.778 36.043 36.043 0 0 0 -58.37 0 1.75 1.75 0 1 0 2.832 2.056 32.544 32.544 0 0 1 52.706 0 1.745 1.745 0 0 0 1.417.722zm-5.056 4.356a1.749 1.749 0 0 0 .408-2.441 28.367 28.367 0 0 0 -46.245 0 1.75 1.75 0 1 0 2.852 2.029 24.866 24.866 0 0 1 40.543 0 1.751 1.751 0 0 0 2.442.412zm-8.5 4.242a1.75 1.75 0 0 0 2.875-2 20.767 20.767 0 0 0 -34.176 0 1.75 1.75 0 0 0 2.875 2 17.267 17.267 0 0 1 28.426 0zm-14.214.522a9.3 9.3 0 1 1 -9.3 9.3 9.313 9.313 0 0 1 9.3-9.3zm0 3.5a5.8 5.8 0 1 0 5.8 5.8 5.81 5.81 0 0 0 -5.8-5.8z" fill="url(#linear-gradient)"/></svg>