<svg id="Layer_1" height="512" viewBox="0 0 128 128" width="512" xmlns="http://www.w3.org/2000/svg" xmlns:xlink="http://www.w3.org/1999/xlink" data-name="Layer 1"><linearGradient id="linear-gradient" gradientUnits="userSpaceOnUse" x1="118.314" x2="9.686" y1="118.314" y2="9.686"><stop offset="0" stop-color="#30ade0"/><stop offset="1" stop-color="#85c646"/></linearGradient><path d="m82.958 25.44a3.024 3.024 0 1 1 3.024-3.023 3.024 3.024 0 0 1 -3.024 3.023zm14.857-3.023a3.024 3.024 0 1 0 -3.023 3.023 3.024 3.024 0 0 0 3.023-3.023zm11.833 0a3.023 3.023 0 1 0 -3.023 3.023 3.023 3.023 0 0 0 3.023-3.023zm11.852-8.817h-44.589a1.75 1.75 0 0 0 0 3.5h42.839v10.637h-111.5v-10.637h41.917a1.75 1.75 0 0 0 0-3.5h-43.667a1.751 1.751 0 0 0 -1.75 1.75v97.308a1.751 1.751 0 0 0 1.75 1.742h115a1.751 1.751 0 0 0 1.75-1.75v-21.927a1.75 1.75 0 0 0 -3.5 0v20.177h-111.5v-79.663h111.5v46.154a1.75 1.75 0 1 0 3.5 0v-62.045a1.751 1.751 0 0 0 -1.75-1.746zm-60.667 3.5h5.834a1.75 1.75 0 0 0 0-3.5h-5.834a1.75 1.75 0 0 0 0 3.5zm-8.507 40.145a1.748 1.748 0 0 0 -2.474 0l-12.589 12.588a1.749 1.749 0 0 0 0 2.475l12.589 12.592a1.749 1.749 0 0 0 2.474-2.474l-11.351-11.356 11.351-11.351a1.748 1.748 0 0 0 0-2.474zm23.348 27.655a1.748 1.748 0 0 0 2.474 0l12.589-12.592a1.749 1.749 0 0 0 0-2.475l-12.589-12.588a1.749 1.749 0 0 0 -2.474 2.474l11.351 11.351-11.351 11.352a1.748 1.748 0 0 0 0 2.478zm-7-37.347-12.724 46.109a1.75 1.75 0 1 0 3.374.93l12.726-46.113a1.75 1.75 0 1 0 -3.374-.93z" fill="url(#linear-gradient)"/></svg>