<svg height="480pt" viewBox="0 0 480 480" width="480pt" xmlns="http://www.w3.org/2000/svg" xmlns:xlink="http://www.w3.org/1999/xlink"><linearGradient id="a"><stop offset="0" stop-color="#fff200"/><stop offset="1" stop-color="#cd118c"/></linearGradient><linearGradient id="b" gradientUnits="userSpaceOnUse" x1="-1.888" x2="454.112" xlink:href="#a" y1="477.648" y2="29.648"/><linearGradient id="c" gradientUnits="userSpaceOnUse" x1="-2.008" x2="453.992" xlink:href="#a" y1="477.528" y2="29.528"/><path d="m240 0c-132.546875 0-240 107.453125-240 240s107.453125 240 240 240 240-107.453125 240-240c-.148438-132.484375-107.515625-239.851562-240-240zm0 464c-123.710938 0-224-100.289062-224-224s100.289062-224 224-224 224 100.289062 224 224c-.140625 123.652344-100.347656 223.859375-224 224zm0 0" fill="url(#b)"/><path d="m341.824219 90.175781c-12.738281-.035156-24.960938 5.027344-33.945313 14.054688l-176.679687 176.707031-33.960938 101.824219 101.824219-33.960938 176.707031-176.679687c13.730469-13.730469 17.835938-34.375 10.40625-52.316406-7.429687-17.9375-24.9375-29.632813-44.351562-29.628907zm-192.335938 195.082031 147.078125-147.082031 45.257813 45.257813-147.082031 147.078125zm-7.816406 14.804688 38.265625 38.265625-57.402344 19.136719zm222.785156-139.261719-11.3125 11.3125-45.265625-45.257812 11.320313-11.3125c12.496093-12.496094 32.757812-12.496094 45.257812 0 12.496094 12.5 12.496094 32.761719 0 45.257812zm0 0" fill="url(#c)"/></svg>