<svg id="Layer_1" height="512" viewBox="0 0 128 128" width="512" xmlns="http://www.w3.org/2000/svg" xmlns:xlink="http://www.w3.org/1999/xlink" data-name="Layer 1"><linearGradient id="linear-gradient" gradientUnits="userSpaceOnUse" x1="118.315" x2="9.685" y1="109.47" y2=".84"><stop offset="0" stop-color="#30ade0"/><stop offset="1" stop-color="#85c646"/></linearGradient><path d="m82.958 16.594a3.024 3.024 0 1 1 3.024-3.023 3.024 3.024 0 0 1 -3.024 3.023zm14.857-3.023a3.024 3.024 0 1 0 -3.023 3.023 3.024 3.024 0 0 0 3.023-3.023zm11.833 0a3.023 3.023 0 1 0 -3.023 3.023 3.023 3.023 0 0 0 3.023-3.023zm-103.148 46.185a1.749 1.749 0 0 0 1.75-1.75v-7.412a1.75 1.75 0 0 0 -3.5 0v7.412a1.749 1.749 0 0 0 1.75 1.75zm116.75-53.256v97.31a1.75 1.75 0 0 1 -1.75 1.75h-50.449a1.75 1.75 0 1 1 0-3.5h48.7v-79.669h-111.501v17.359a1.75 1.75 0 0 1 -3.5 0v-33.25a1.749 1.749 0 0 1 1.75-1.75h115a1.749 1.749 0 0 1 1.75 1.75zm-3.5 12.391v-10.641h-111.5v10.641zm-51.85 98.939a1.75 1.75 0 0 1 -.755 2.356l-6.55 3.37a1.75 1.75 0 0 1 -2.1-.381l-14.669-16.187a10.236 10.236 0 0 1 -10.542-1.428h-26.784a1.75 1.75 0 0 1 -1.75-1.75v-35.06a1.75 1.75 0 0 1 3.5 0v33.31h22.241l-3.8-7.4a10.31 10.31 0 0 1 4.447-13.86l12.211-6.28 6.329-6.446a1.751 1.751 0 0 1 2.5 2.453l-5.64 5.744 10.562 20.549 42.924-6.715-23.048-44.834-17.738 18.065a1.751 1.751 0 0 1 -2.5-2.453l19.438-19.793a1.75 1.75 0 0 1 2.8.427l7.844 15.257a10.619 10.619 0 0 1 9.58 18.632l7.842 15.254a1.75 1.75 0 0 1 -1.286 2.528l-44.174 6.912zm20.557-57.882 6.314 12.283a7.123 7.123 0 0 0 -6.314-12.283zm-45.6 43.652 10.908-5.607-1.665-3.242-8.455-16.451-10.908 5.61a6.8 6.8 0 0 0 -2.937 9.152l3.906 7.6a6.8 6.8 0 0 0 9.15 2.937zm21.126 14.278-8.621-16.778-8.286 4.26 13.109 14.466zm-5.133-44.9a1.746 1.746 0 0 0 1.249-.524l12.201-12.43a1.751 1.751 0 0 0 -2.5-2.453l-12.2 12.429a1.75 1.75 0 0 0 1.249 2.977z" fill="url(#linear-gradient)"/></svg>