<svg id="Layer_1" height="512" viewBox="0 0 128 128" width="512" xmlns="http://www.w3.org/2000/svg" xmlns:xlink="http://www.w3.org/1999/xlink" data-name="Layer 1"><linearGradient id="linear-gradient" gradientUnits="userSpaceOnUse" x1="118.315" x2="9.685" y1="109.47" y2=".84"><stop offset="0" stop-color="#30ade0"/><stop offset="1" stop-color="#85c646"/></linearGradient><path d="m82.958 16.594a3.024 3.024 0 1 1 3.024-3.023 3.024 3.024 0 0 1 -3.024 3.023zm14.857-3.023a3.024 3.024 0 1 0 -3.023 3.023 3.024 3.024 0 0 0 3.023-3.023zm11.833 0a3.023 3.023 0 1 0 -3.023 3.023 3.023 3.023 0 0 0 3.023-3.023zm-42.548 101.529a3.1 3.1 0 1 0 -3.1 3.1 3.1 3.1 0 0 0 3.1-3.1zm54.4-61.7a1.75 1.75 0 0 0 -1.75 1.75v7.85a1.75 1.75 0 0 0 3.5 0v-7.85a1.75 1.75 0 0 0 -1.75-1.75zm1.75-46.9v39a1.75 1.75 0 0 1 -3.5 0v-23.109h-111.5v79.669h29.337v-13.367a1.75 1.75 0 0 1 3.5 0v15.088.029s0 .019 0 .029v3.106h45.826v-3.106c0-.01 0-.019 0-.029s0-.02 0-.029v-43.919h-45.826v17.3a1.75 1.75 0 0 1 -3.5 0v-19.477a9.2 9.2 0 0 1 9.184-9.185h34.458a9.2 9.2 0 0 1 9.184 9.185v44.375h29.337v-28.091a1.75 1.75 0 0 1 3.5 0v29.841a1.75 1.75 0 0 1 -1.75 1.75h-31.087v8.5a9.2 9.2 0 0 1 -9.184 9.185h-34.458a9.2 9.2 0 0 1 -9.184-9.185v-8.5h-31.087a1.75 1.75 0 0 1 -1.75-1.75v-97.31a1.749 1.749 0 0 1 1.75-1.75h115a1.749 1.749 0 0 1 1.75 1.75zm-82 49.862h45.5a5.691 5.691 0 0 0 -5.521-4.362h-34.458a5.691 5.691 0 0 0 -5.523 4.362zm-.161 54.083v3.62a5.691 5.691 0 0 0 5.684 5.685h34.456a5.691 5.691 0 0 0 5.684-5.685v-3.62zm78.661-91.554v-10.641h-111.5v10.641zm-69.33 68.052a1.75 1.75 0 0 0 -1.75 1.75v8.291a1.8 1.8 0 0 0 .034.343c.011.054.031.1.047.156a1.673 1.673 0 0 0 .053.17 1.745 1.745 0 0 0 .095.182c.022.039.039.081.065.119a1.774 1.774 0 0 0 .486.487c.04.026.082.043.123.066a1.678 1.678 0 0 0 .178.094c.056.023.116.036.174.054s.1.034.152.045a1.8 1.8 0 0 0 .343.034h8.29a1.75 1.75 0 0 0 0-3.5h-4.066l21.186-21.186v4.066a1.75 1.75 0 0 0 3.5 0v-8.291a1.787 1.787 0 0 0 -.034-.342c-.011-.055-.032-.106-.048-.159a1.609 1.609 0 0 0 -.051-.167 1.807 1.807 0 0 0 -.1-.185c-.022-.038-.039-.079-.064-.116a1.75 1.75 0 0 0 -.487-.487 1.3 1.3 0 0 0 -.116-.063 1.061 1.061 0 0 0 -.352-.149c-.053-.016-.1-.036-.159-.047a1.711 1.711 0 0 0 -.342-.035h-8.287a1.75 1.75 0 0 0 0 3.5h4.066l-21.186 21.187v-4.067a1.75 1.75 0 0 0 -1.75-1.75z" fill="url(#linear-gradient)"/></svg>