<svg id="Layer_1" height="512" viewBox="0 0 128 128" width="512" xmlns="http://www.w3.org/2000/svg" xmlns:xlink="http://www.w3.org/1999/xlink" data-name="Layer 1"><linearGradient id="linear-gradient" gradientUnits="userSpaceOnUse" x1="120.308" x2="7.693" y1="125.166" y2="12.551"><stop offset="0" stop-color="#30ade0"/><stop offset="1" stop-color="#85c646"/></linearGradient><path d="m118.049 103.922a11.818 11.818 0 0 0 .079-10.942 11.829 11.829 0 0 0 -21.042 10.82c.023.044.051.084.074.127a6.1 6.1 0 0 0 -5.2 6.016v11.557a1.751 1.751 0 0 0 1.75 1.75h27.79a1.751 1.751 0 0 0 1.75-1.75v-11.56a6.1 6.1 0 0 0 -5.201-6.018zm-18.373-8.078a8.33 8.33 0 0 1 15.339-1.263 8.329 8.329 0 1 1 -15.339 1.263zm20.074 23.906h-2.027v-3.512a1.75 1.75 0 0 0 -3.5 0v3.512h-13.232v-3.512a1.75 1.75 0 0 0 -3.5 0v3.512h-2.031v-9.81a2.6 2.6 0 0 1 2.6-2.59h1.822a11.769 11.769 0 0 0 15.429 0h1.849a2.593 2.593 0 0 1 2.59 2.59zm-113.25-78.31h5.5.024.025 16.686.024.024 5.507a1.751 1.751 0 0 0 1.75-1.75v-11.55a6.1 6.1 0 0 0 -5.2-6.017 11.883 11.883 0 0 0 .82-1.927 11.829 11.829 0 1 0 -21.787 1.794c.023.046.055.086.08.132a6.094 6.094 0 0 0 -5.2 6.018v11.55a1.751 1.751 0 0 0 1.747 1.75zm5.962-27.4a8.329 8.329 0 1 1 13.738 8.514l-.016.016a8.34 8.34 0 0 1 -13.2-2.181 8.274 8.274 0 0 1 -.522-6.353zm-4.212 14.1a2.593 2.593 0 0 1 2.59-2.59h1.871a11.885 11.885 0 0 0 7.7 2.859 11.755 11.755 0 0 0 5.389-1.309 11.9 11.9 0 0 0 2.292-1.552h1.848a2.6 2.6 0 0 1 2.6 2.59v9.8h-2.031v-3.507a1.75 1.75 0 0 0 -3.5 0v3.509h-13.232v-3.509a1.75 1.75 0 0 0 -3.5 0v3.509h-2.027zm22.585 75.783a11.825 11.825 0 1 0 -20.962-.123c.022.045.053.082.076.126a6.093 6.093 0 0 0 -5.2 6.017v11.557a1.751 1.751 0 0 0 1.75 1.75h27.791a1.75 1.75 0 0 0 0-3.5h-3.781v-3.512a1.75 1.75 0 0 0 -3.5 0v3.512h-13.232v-3.512a1.75 1.75 0 0 0 -3.5 0v3.512h-2.027v-9.81a2.593 2.593 0 0 1 2.59-2.59h1.86a11.889 11.889 0 0 0 7.71 2.867 11.692 11.692 0 0 0 7.69-2.867h1.84a2.6 2.6 0 0 1 2.6 2.59v3.61a1.75 1.75 0 0 0 3.5 0v-3.61a6.1 6.1 0 0 0 -5.205-6.017zm-17.85-1.723a8.329 8.329 0 1 1 13.237 2.142c-.012.011-.024.02-.035.031a8.323 8.323 0 0 1 -13.2-2.173zm7.569-55.572a1.751 1.751 0 0 1 1.75 1.75v31.25a1.75 1.75 0 0 1 -3.5 0v-31.253a1.75 1.75 0 0 1 1.75-1.75zm86.892 34.75a1.751 1.751 0 0 1 -1.75-1.75v-31.253a1.75 1.75 0 0 1 3.5 0v31.25a1.75 1.75 0 0 1 -1.75 1.75zm-60.821-60.824a1.75 1.75 0 0 1 1.75-1.75h31.25a1.75 1.75 0 0 1 0 3.5h-31.25a1.751 1.751 0 0 1 -1.75-1.75zm34.75 86.892a1.75 1.75 0 0 1 -1.75 1.75h-31.25a1.75 1.75 0 0 1 0-3.5h31.25a1.751 1.751 0 0 1 1.75 1.75zm7.708-29.086a28.809 28.809 0 0 0 0-28.72 1.776 1.776 0 0 0 -.221-.383 29.034 29.034 0 0 0 -16.831-13.03 1.762 1.762 0 0 0 -.215-.062 28.774 28.774 0 0 0 -15.647 0 1.706 1.706 0 0 0 -.231.07 28.756 28.756 0 0 0 -6.545 2.8 1.75 1.75 0 1 0 1.771 3.019c.318-.186.645-.354.97-.526a38.817 38.817 0 0 0 -2.667 7.016h-5.625c.359-.468.719-.935 1.113-1.38a1.75 1.75 0 0 0 -2.622-2.318 28.877 28.877 0 0 0 -3.233 4.454c-.035.051-.061.106-.091.16a28.846 28.846 0 0 0 -.091 28.9 1.776 1.776 0 0 0 .221.383 29.034 29.034 0 0 0 16.845 13.035 1.842 1.842 0 0 0 .234.066 28.76 28.76 0 0 0 15.558 0 1.738 1.738 0 0 0 .237-.068 29.029 29.029 0 0 0 16.849-13.033 1.776 1.776 0 0 0 .221-.383zm-23.333 10.989v-9.9h9.142a27.962 27.962 0 0 1 -4.465 9.14 25.289 25.289 0 0 1 -4.677.76zm-8.177-.757a27.992 27.992 0 0 1 -4.465-9.14h9.142v9.9a25.289 25.289 0 0 1 -4.677-.76zm-18.922-22.842h8.849a58.627 58.627 0 0 0 1.141 10.2h-7.064a25.211 25.211 0 0 1 -2.926-10.2zm23.6-13.7v10.2h-11.251a55.493 55.493 0 0 1 1.22-10.2zm3.5-13.4a25.289 25.289 0 0 1 4.677.757 27.992 27.992 0 0 1 4.465 9.14h-9.143zm10.032 13.4a55.462 55.462 0 0 1 1.217 10.2h-11.25v-10.2zm13.567 10.2h-8.85a58.627 58.627 0 0 0 -1.141-10.2h7.061a25.211 25.211 0 0 1 2.929 10.2zm-38.35 3.5h11.25v10.2h-10.032a55.462 55.462 0 0 1 -1.218-10.2zm14.752 10.2v-10.2h11.248a55.493 55.493 0 0 1 -1.22 10.2zm14.748-10.2h8.846a25.211 25.211 0 0 1 -2.926 10.2h-7.058a58.627 58.627 0 0 0 1.138-10.2zm3.658-17.2h-5.625a38.806 38.806 0 0 0 -2.666-7.015 25.612 25.612 0 0 1 8.294 7.013zm-26.589-9.136a25.517 25.517 0 0 1 4.681-.768v9.9h-9.142a27.965 27.965 0 0 1 4.461-9.132zm-8.931 12.634a58.627 58.627 0 0 0 -1.138 10.202h-8.837a25.345 25.345 0 0 1 2.932-10.2zm-4.8 27.4h5.627a38.841 38.841 0 0 0 2.667 7.014 25.586 25.586 0 0 1 -8.293-7.01zm32.028 7.015a38.806 38.806 0 0 0 2.666-7.015h5.628a25.6 25.6 0 0 1 -8.293 7.019zm42.193-64.35a11.966 11.966 0 0 0 .864-2.092 1.75 1.75 0 0 0 -3.349-1.018 8.272 8.272 0 0 1 -2.127 3.519c-.014.014-.03.026-.044.04a8.331 8.331 0 1 1 1.371-10.227 1.75 1.75 0 0 0 3.014-1.779 11.83 11.83 0 0 0 -20.7 11.431c.023.044.054.082.077.126a6.1 6.1 0 0 0 -5.2 6.016v11.56a1.75 1.75 0 0 0 1.75 1.75h27.785a1.75 1.75 0 0 0 1.75-1.75v-11.556a6.1 6.1 0 0 0 -5.19-6.016zm1.69 15.826h-2.027v-3.507a1.75 1.75 0 0 0 -3.5 0v3.511h-13.231v-3.511a1.75 1.75 0 0 0 -3.5 0v3.511h-2.031v-9.81a2.6 2.6 0 0 1 2.6-2.59h1.857a11.754 11.754 0 0 0 15.4 0h1.843a2.593 2.593 0 0 1 2.59 2.59z" fill="url(#linear-gradient)"/></svg>