<?xml version="1.0" encoding="iso-8859-1"?>
<!-- Generator: Adobe Illustrator 21.0.0, SVG Export Plug-In . SVG Version: 6.00 Build 0)  -->
<svg version="1.1" id="Capa_1" xmlns="http://www.w3.org/2000/svg" xmlns:xlink="http://www.w3.org/1999/xlink" x="0px" y="0px"
	 viewBox="0 0 1449.61 1449.61" style="enable-background:new 0 0 1449.61 1449.61;" xml:space="preserve">
<g>
	<g id="Human_Mind-25">
		
			<linearGradient id="SVGID_1_" gradientUnits="userSpaceOnUse" x1="724.8052" y1="1487.9927" x2="724.8052" y2="-64.1363" gradientTransform="matrix(1 0 0 -1 0 1452)">
			<stop  offset="0" style="stop-color:#FFF33B"/>
			<stop  offset="0.014" style="stop-color:#FEE72E"/>
			<stop  offset="0.042" style="stop-color:#FED51B"/>
			<stop  offset="0.07" style="stop-color:#FDCA10"/>
			<stop  offset="0.1" style="stop-color:#FDC70C"/>
			<stop  offset="0.4" style="stop-color:#F3903F"/>
			<stop  offset="0.8" style="stop-color:#ED683C"/>
			<stop  offset="1" style="stop-color:#E93E3A"/>
		</linearGradient>
		<path style="fill:url(#SVGID_1_);" d="M1314.187,371.159C1215.2,158.179,1007.506,16.531,773.089,2.126L749.803,0l-21.306,0.531
			C656.173,3.18,585.288,21.52,520.754,54.279c-171.589,85.784-279.734,261.405-279.1,453.242v89.933L100.171,833.266
			c-6.871,11.436-3.17,26.276,8.266,33.147c3.756,2.256,8.054,3.449,12.436,3.45h151.217l-14.663,217.744
			c-11.177,64.42,31.271,125.933,95.465,138.342c1.592,0.305,3.21,0.458,4.831,0.459c0.864,0.001,1.727-0.048,2.585-0.145
			l147.063-15.943v215.135c0,13.341,10.815,24.156,24.156,24.156h579.747c13.341,0,24.156-10.815,24.156-24.156V1185.39
			l188.756-466.407C1365.66,606.062,1362.079,481.511,1314.187,371.159z M1279.04,701.808l-190.157,470.006
			c-1.318,3.437-1.823,7.133-1.474,10.798c0,0.507-0.29,0.942-0.29,1.449v217.236H555.684v-217.405c0-0.507-0.266-0.942-0.29-1.449
			c-0.024-0.507,0.217-1.063,0.145-1.643c-0.306-1.38-0.734-2.73-1.28-4.034c-0.265-1.035-0.595-2.051-0.99-3.044
			c-0.97-2.075-2.24-3.995-3.768-5.701c-0.314-0.386-0.483-0.918-0.821-1.28s-0.556-0.411-0.821-0.652
			c-5.01-4.909-11.931-7.358-18.914-6.691l-170.011,18.407c-37.5-9.448-61.037-46.605-53.554-84.547l16.668-245.91
			c0.939-13.308-9.087-24.858-22.395-25.797c-0.007-0.001-0.014-0.001-0.022-0.002c-1.981-0.145-135.999,0-135.999,0
			l122.955-205.037c0.217-0.512,0.403-1.036,0.556-1.57c0.704-1.45,1.247-2.973,1.618-4.541c0.48-1.575,0.803-3.193,0.966-4.831
			c0-0.58,0.314-1.039,0.314-1.618v-96.431c-0.666-173.628,97.126-332.633,252.383-410.365
			c58.285-29.591,122.3-46.174,187.621-48.602h19.325c224.308,6.326,425.843,138.692,520.758,342.027
			C1312.88,489.346,1316.071,600.758,1279.04,701.808z"/>
		
			<linearGradient id="SVGID_2_" gradientUnits="userSpaceOnUse" x1="785.1673" y1="1487.9927" x2="785.1673" y2="-64.1363" gradientTransform="matrix(1 0 0 -1 0 1452)">
			<stop  offset="0" style="stop-color:#FFF33B"/>
			<stop  offset="0.014" style="stop-color:#FEE72E"/>
			<stop  offset="0.042" style="stop-color:#FED51B"/>
			<stop  offset="0.07" style="stop-color:#FDCA10"/>
			<stop  offset="0.1" style="stop-color:#FDC70C"/>
			<stop  offset="0.4" style="stop-color:#F3903F"/>
			<stop  offset="0.8" style="stop-color:#ED683C"/>
			<stop  offset="1" style="stop-color:#E93E3A"/>
		</linearGradient>
		<path style="fill:url(#SVGID_2_);" d="M1207.9,604.145h-42.418l30.026-30.026c9.43-9.433,9.43-24.724,0-34.157l-66.381-66.26
			l25.485-44.133c6.67-11.553,2.712-26.327-8.841-32.997l-58.651-33.988l58.651-33.819c11.553-6.671,15.511-21.444,8.841-32.997
			l-48.312-83.677c-6.671-11.553-21.444-15.511-32.997-8.841l-58.651,33.722v-67.637c0-13.341-10.815-24.156-24.156-24.156H893.87
			c-13.341,0-24.156,10.815-24.156,24.156v67.637l-58.651-33.819c-2.264-1.204-4.713-2.02-7.247-2.416l-21.958-21.958
			c-9.43-9.414-24.702-9.414-34.133,0l-23.045,22.948v-32.393c0-13.341-10.815-24.156-24.156-24.156h-144.84
			c-13.341,0-24.156,10.815-24.156,24.156v32.418l-23.045-22.948c-9.43-9.414-24.702-9.414-34.133,0L371.928,281.226
			c-9.398,9.427-9.398,24.681,0,34.108l22.948,23.069h-32.442c-13.341,0-24.156,10.815-24.156,24.156l0,0v144.937
			c0,13.341,10.815,24.156,24.156,24.156h32.418l-22.948,23.069c-9.398,9.427-9.398,24.681,0,34.109l102.422,102.422
			c9.43,9.414,24.702,9.414,34.133,0l23.045-22.948v32.466c0,13.341,10.815,24.156,24.156,24.156h144.937
			c13.341,0,24.156-10.815,24.156-24.156v-32.417l23.045,22.948c0.338,0.338,0.773,0.435,1.111,0.749v32.876
			c0,13.341,10.815,24.156,24.156,24.156h42.418l-30.026,30.026c-9.43,9.433-9.43,24.724,0,34.157l68.362,68.362
			c9.433,9.43,24.724,9.43,34.157,0l30.05-30.026v42.418c0,13.341,10.815,24.156,24.156,24.156h96.625
			c13.341,0,24.156-10.815,24.156-24.156v-42.418l30.026,30.026c9.433,9.43,24.724,9.43,34.157,0l68.362-68.362
			c9.43-9.433,9.43-24.724,0-34.157l-30.026-30.026h42.418c13.341,0,24.156-10.815,24.156-24.156v-96.625
			C1232.056,614.96,1221.241,604.145,1207.9,604.145z M885.15,285.043c5.709-4.315,11.883-7.978,18.407-10.919
			c8.799-3.84,14.489-12.527,14.494-22.127v-58.506h48.312v58.506c0.005,9.6,5.695,18.287,14.494,22.127
			c6.524,2.941,12.698,6.603,18.407,10.919c7.727,5.692,18.09,6.271,26.403,1.474l50.921-29.398l24.156,41.838l-51.139,29.543
			c-8.279,4.783-12.957,13.998-11.933,23.504l0.604,4.662c0.773,3.908,0.773,7.929,0,11.837l-0.604,4.662
			c-1.024,9.506,3.655,18.721,11.933,23.504l51.139,29.543l-24.156,41.838l-50.921-29.398c-8.312-4.797-18.676-4.219-26.403,1.474
			c-5.709,4.315-11.883,7.978-18.407,10.919c-8.799,3.84-14.489,12.527-14.494,22.127v58.506h-48.336v-58.506
			c-0.049-2.892-0.631-5.749-1.715-8.431c-0.273-0.714-0.596-1.409-0.966-2.077c-0.957-1.979-2.193-3.809-3.672-5.435
			c-0.394-0.504-0.813-0.988-1.256-1.449c-1.985-2.001-4.307-3.636-6.86-4.831c-6.524-2.941-12.698-6.603-18.407-10.919
			c-7.727-5.692-18.091-6.271-26.403-1.474l-50.921,29.398l-24.156-41.838l51.139-29.543c8.279-4.783,12.957-13.998,11.933-23.504
			l-0.604-4.662c-0.773-3.908-0.773-7.929,0-11.837l0.604-4.662c1.024-9.506-3.655-18.721-11.933-23.504L783.67,298.86
			l24.156-41.838l50.921,29.398C867.04,291.245,877.403,290.704,885.15,285.043z M1183.744,700.77h-56.767
			c-10.247,0.003-19.377,6.471-22.779,16.136c-1.406,3.979-3.019,7.881-4.831,11.692c-4.347,9.241-2.413,20.218,4.831,27.417
			l40.172,40.172l-34.302,34.205l-40.172-40.244c-7.195-7.233-18.158-9.167-27.393-4.831c-3.796,1.808-7.682,3.421-11.643,4.831
			c-9.753,3.398-16.267,12.62-16.209,22.948v56.767h-48.312v-56.767c-0.003-10.275-6.506-19.423-16.209-22.803
			c-3.961-1.41-7.847-3.023-11.643-4.831c-9.235-4.336-20.198-2.402-27.393,4.831l-40.172,40.099l-34.205-34.205l40.244-40.172
			c7.244-7.199,9.179-18.176,4.831-27.417c-1.812-3.811-3.425-7.713-4.831-11.692c-3.422-9.725-12.639-16.206-22.948-16.136h-56.767
			v-48.312h13.527c13.341,0,24.156-10.815,24.156-24.156c0-13.341-10.815-24.156-24.156-24.156h-37.684
			c-11.907,0.091-21.925,8.945-23.48,20.75l-28.987-28.987c-5.962-5.953-14.594-8.369-22.779-6.377
			c-1.085,0.248-2.144,0.596-3.164,1.039c-10.737,2.725-18.244,12.403-18.214,23.48v62.564H579.84v-62.564
			c0.451-10.758-6.66-20.374-17.078-23.093c-0.918-0.338-3.334-1.111-4.252-1.353c-8.186-2.026-16.835,0.395-22.779,6.377
			l-44.278,44.085l-68.314-68.314l44.085-44.278c5.952-5.962,8.369-14.594,6.377-22.779c-0.215-0.999-0.539-1.971-0.966-2.899
			c-2.64-10.823-12.339-18.437-23.48-18.431h-62.564V386.74h62.564c10.789,0.573,20.467-6.592,23.069-17.078
			c0.362-0.918,1.135-3.309,1.377-4.251c1.992-8.186-0.425-16.818-6.377-22.779l-44.085-44.278l68.314-68.314l44.278,44.085
			c5.962,5.952,14.594,8.369,22.779,6.377c1.085-0.248,2.144-0.596,3.164-1.039c10.691-2.737,18.168-12.371,18.165-23.407v-62.564
			h96.625v62.564c-0.451,10.758,6.66,20.374,17.078,23.093c0.918,0.338,3.334,1.111,4.252,1.353
			c8.186,1.992,16.818-0.425,22.779-6.377l44.278-44.085l1.788,1.788l-36.886,63.893c-6.67,11.553-2.712,26.327,8.841,32.997
			l44.157,25.509c-0.882,3.676-0.882,7.508,0,11.184c0.215,0.999,0.539,1.971,0.966,2.899c0.169,0.604,0.556,1.087,0.749,1.691
			l-42.901,24.784c-22.653-62.301-91.522-94.443-153.823-71.79c-62.301,22.653-94.443,91.522-71.79,153.823
			s91.522,94.443,153.823,71.79c39.663-14.421,68.838-48.613,76.839-90.051l31.403,54.569c6.671,11.553,21.444,15.511,32.997,8.841
			l58.699-33.77v67.637c0,13.341,10.815,24.156,24.156,24.156h96.625c13.341,0,24.156-10.815,24.156-24.156v-67.637l58.651,33.819
			c10.112,5.694,22.855,3.288,30.195-5.701l40.776,40.776l-40.244,40.123c-7.244,7.199-9.179,18.176-4.831,27.417
			c1.813,3.811,3.425,7.713,4.831,11.692c3.422,9.725,12.639,16.206,22.948,16.136h56.767V700.77z M700.621,435.052
			c0,40.023-32.445,72.468-72.468,72.468c-40.023,0-72.468-32.445-72.468-72.468s32.445-72.468,72.468-72.468
			C668.176,362.584,700.621,395.029,700.621,435.052z"/>
		
			<linearGradient id="SVGID_3_" gradientUnits="userSpaceOnUse" x1="942.1823" y1="1487.9927" x2="942.1823" y2="-64.1363" gradientTransform="matrix(1 0 0 -1 0 1452)">
			<stop  offset="0" style="stop-color:#FFF33B"/>
			<stop  offset="0.014" style="stop-color:#FEE72E"/>
			<stop  offset="0.042" style="stop-color:#FED51B"/>
			<stop  offset="0.07" style="stop-color:#FDCA10"/>
			<stop  offset="0.1" style="stop-color:#FDC70C"/>
			<stop  offset="0.4" style="stop-color:#F3903F"/>
			<stop  offset="0.8" style="stop-color:#ED683C"/>
			<stop  offset="1" style="stop-color:#E93E3A"/>
		</linearGradient>
		<path style="fill:url(#SVGID_3_);" d="M942.182,435.052c40.023,0,72.468-32.445,72.468-72.468s-32.445-72.468-72.468-72.468
			s-72.468,32.445-72.468,72.468S902.159,435.052,942.182,435.052z M942.182,338.428c13.341,0,24.156,10.815,24.156,24.156
			c0,13.341-10.815,24.156-24.156,24.156s-24.156-10.815-24.156-24.156C918.026,349.243,928.841,338.428,942.182,338.428z"/>
		
			<linearGradient id="SVGID_4_" gradientUnits="userSpaceOnUse" x1="990.4945" y1="1487.9927" x2="990.4945" y2="-64.1363" gradientTransform="matrix(1 0 0 -1 0 1452)">
			<stop  offset="0" style="stop-color:#FFF33B"/>
			<stop  offset="0.014" style="stop-color:#FEE72E"/>
			<stop  offset="0.042" style="stop-color:#FED51B"/>
			<stop  offset="0.07" style="stop-color:#FDCA10"/>
			<stop  offset="0.1" style="stop-color:#FDC70C"/>
			<stop  offset="0.4" style="stop-color:#F3903F"/>
			<stop  offset="0.8" style="stop-color:#ED683C"/>
			<stop  offset="1" style="stop-color:#E93E3A"/>
		</linearGradient>
		<path style="fill:url(#SVGID_4_);" d="M893.87,676.614c0,53.364,43.26,96.625,96.625,96.625c53.364,0,96.625-43.26,96.625-96.625
			c0-53.364-43.26-96.625-96.625-96.625C937.13,579.989,893.87,623.249,893.87,676.614z M990.495,628.301
			c26.682,0,48.312,21.63,48.312,48.312c0,26.682-21.63,48.312-48.312,48.312c-26.682,0-48.312-21.63-48.312-48.312
			C942.182,649.932,963.812,628.301,990.495,628.301z"/>
	</g>
</g>
<g>
</g>
<g>
</g>
<g>
</g>
<g>
</g>
<g>
</g>
<g>
</g>
<g>
</g>
<g>
</g>
<g>
</g>
<g>
</g>
<g>
</g>
<g>
</g>
<g>
</g>
<g>
</g>
<g>
</g>
</svg>
